<svg width="16" height="17" viewBox="0 0 16 17" fill="none" xmlns="http://www.w3.org/2000/svg">
<g clip-path="url(#clip0_1_85)">
<path d="M3.71428 7.35651C5.45004 7.35651 6.85714 5.9494 6.85714 4.21364C6.85714 2.47789 5.45004 1.07078 3.71428 1.07078C1.97852 1.07078 0.571411 2.47789 0.571411 4.21364C0.571411 5.9494 1.97852 7.35651 3.71428 7.35651Z" stroke="#F9F9FA" stroke-width="0.666669" stroke-linecap="round" stroke-linejoin="round"/>
<path d="M12.2857 7.35651C14.0214 7.35651 15.4286 5.9494 15.4286 4.21364C15.4286 2.47789 14.0214 1.07078 12.2857 1.07078C10.5499 1.07078 9.14282 2.47789 9.14282 4.21364C9.14282 5.9494 10.5499 7.35651 12.2857 7.35651Z" stroke="#F9F9FA" stroke-width="0.666669" stroke-linecap="round" stroke-linejoin="round"/>
<path d="M3.7143 15.9273C5.45005 15.9273 6.85716 14.5202 6.85716 12.7844C6.85716 11.0486 5.45005 9.64154 3.7143 9.64154C1.97854 9.64154 0.571428 11.0486 0.571428 12.7844C0.571428 14.5202 1.97854 15.9273 3.7143 15.9273Z" stroke="#F9F9FA" stroke-width="0.666669" stroke-linecap="round" stroke-linejoin="round"/>
<path d="M12.2858 15.9273C14.0215 15.9273 15.4286 14.5202 15.4286 12.7844C15.4286 11.0486 14.0215 9.64154 12.2858 9.64154C10.55 9.64154 9.14289 11.0486 9.14289 12.7844C9.14289 14.5202 10.55 15.9273 12.2858 15.9273Z" stroke="#F9F9FA" stroke-width="0.666669" stroke-linecap="round" stroke-linejoin="round"/>
</g>
<defs>
<clipPath id="clip0_1_85">
<rect width="16" height="16" fill="white" transform="translate(0 0.499977)"/>
</clipPath>
</defs>
</svg>
